<svg width="41" height="42" viewBox="0 0 41 42" fill="none" xmlns="http://www.w3.org/2000/svg">
<path d="M20.2613 36.0341C16.7101 36.0382 13.2748 34.7426 10.5764 32.3815C10.2624 32.1074 10.0102 31.7669 9.83719 31.3835C9.66419 31 9.57447 30.5829 9.57422 30.1606C9.57422 26.3217 12.6123 23.2483 16.3671 23.2483H24.1667C27.9223 23.2483 30.9483 26.3217 30.9483 30.1606C30.9487 30.5827 30.8593 30.9997 30.6864 31.383C30.5134 31.7662 30.2611 32.1064 29.9469 32.38C27.2489 34.7424 23.813 36.0387 20.2613 36.0341ZM20.2658 6.1977C21.5916 6.19755 22.8878 6.59954 23.9902 7.35284C25.0927 8.10614 25.952 9.17691 26.4595 10.4297C26.9669 11.6826 27.0997 13.0612 26.8411 14.3912C26.5825 15.7212 25.944 16.9429 25.0065 17.9018C24.069 18.8607 22.8745 19.5137 21.5741 19.7782C20.2737 20.0427 18.9258 19.9069 17.7009 19.3879C16.476 18.8689 15.4291 17.99 14.6926 16.8624C13.9561 15.7348 13.5631 14.4091 13.5632 13.053C13.5634 11.235 14.2697 9.49139 15.5266 8.20581C16.7835 6.92023 18.4882 6.1979 20.2658 6.1977ZM20.2658 1.66027e-05C9.07428 1.66027e-05 0 9.2796 0 20.7262C0 32.1736 9.07353 41.4532 20.2658 41.4532C31.4588 41.4532 40.5316 32.1736 40.5316 20.7262C40.5316 9.2796 31.4588 1.66027e-05 20.2658 1.66027e-05Z" fill="white"/>
</svg>
